<svg width="500" height="300" viewBox="0 0 500 300" fill="none" xmlns="http://www.w3.org/2000/svg">
<g clip-path="url(#clip0)">
<rect width="500" height="300" fill="#222B45"/>
<g opacity="0.8">
<g clip-path="url(#clip1)">
<path d="M120.818 251.597C113.837 252.156 107.522 248.966 104.605 243.983L96.3306 244.565L90.0835 246.974C88.6545 247.524 87.6934 248.615 87.4742 249.869C86.8841 253.248 85.8134 256.503 84.3253 259.596C83.8195 260.644 83.908 261.813 84.5951 262.79L86.8208 265.97L88.5645 265.718C91.8272 264.72 95.6252 264.96 98.7488 266.634C104.043 269.474 105.312 275.32 101.375 279.434C97.9858 282.979 91.6839 283.952 86.8868 281.675C83.8307 280.226 81.9844 277.82 81.5333 275.249L79.1194 275.145L74.8029 274.724C73.3191 274.579 71.8437 274.987 70.7646 275.812C67.1225 278.585 63.0083 280.967 58.5358 282.874C57.031 283.514 56.0656 284.744 55.9603 286.102L55.4123 293.09L58.127 301.698C62.747 302.729 66.5661 305.657 67.8223 309.64C69.7192 315.66 65.0401 321.769 57.4103 323.127C50.5267 324.353 43.466 321.146 41.2782 315.785C39.5752 311.6 41.1391 307.274 44.739 304.448L42.0117 295.788L37.8005 290.377C36.6708 288.925 34.6727 288.066 32.5314 288.069C32.5187 288.069 32.5103 288.069 32.4976 288.069C28.8092 288.069 25.2009 287.776 21.7105 287.227C19.6324 286.897 17.4868 287.423 16.0283 288.652L10.464 293.346L4.23371 303.676C5.69222 306.045 5.82289 308.905 4.28008 311.469C1.50638 316.065 -5.56698 317.891 -11.2198 315.35C-16.059 313.171 -18.154 308.359 -16.0463 304.249C-14.6089 301.445 -11.6286 299.572 -8.25637 298.945L-1.98815 288.548L-0.757267 281.57C-0.533853 280.283 -1.14929 278.986 -2.4139 278.171C-7.40066 274.936 -11.675 271.031 -15.0178 266.624C-15.8482 265.529 -17.3404 264.865 -18.9423 264.855L-27.6596 264.788L-28.3143 263.615C-28.9845 268.359 -33.0481 272.574 -39.1098 274.097C-47.2539 276.146 -55.929 272.567 -58.5721 266.098C-61.2151 259.633 -56.751 252.561 -48.6702 250.425C-43.0132 248.929 -37.0696 250.172 -33.0481 253.228L-22.9186 250.681L-24.4096 250.037C-23.3094 249.414 -22.7234 248.369 -22.833 247.298C-22.9553 246.109 -23.0185 244.909 -23.0185 243.696C-23.0185 237.106 -21.2059 230.849 -17.9685 225.222C-17.4964 224.397 -17.5091 223.447 -18.0065 222.631L-20.1985 219.05L-26.1463 215.462C-29.4764 216.314 -33.2492 215.906 -36.2505 214.097C-41.3426 211.024 -42.2026 205.131 -37.9872 201.2C-34.3578 197.813 -27.9969 197.119 -23.3642 199.606C-20.4134 201.189 -18.7357 203.669 -18.4659 206.257L-11.8731 210.233L-5.22975 211.179C-0.394745 207.591 5.24117 204.683 11.4335 202.645L12.9932 195.071L11.0246 187.247C5.19902 186.048 0.469401 182.48 -0.803634 177.722C-2.59937 171.001 3.17987 164.454 12.108 163.103C21.0319 161.752 29.7239 166.102 31.5197 172.823C32.8644 177.854 29.9684 182.783 24.6824 185.512L26.5413 192.891L31.1066 198.713C31.4059 199.094 31.9285 199.323 32.4892 199.323C42.9517 199.323 52.7397 201.648 61.0988 205.684C61.5582 205.903 62.1231 205.933 62.6079 205.751L69.7571 203.103L78.1035 195.886C77.6019 193.299 78.525 190.556 80.9236 188.484C85.2569 184.741 92.676 184.646 97.1527 188.39C101.077 191.675 101.229 196.914 97.5025 200.344C95.0913 202.564 91.6305 203.588 88.2498 203.386L79.9034 210.603L77.193 216.432C77.0033 216.836 77.0876 217.288 77.4037 217.638C80.6959 221.25 83.3221 225.273 85.1347 229.592C85.6363 230.778 86.8166 231.702 88.3257 232.042L95.1124 233.561L103.931 232.938C106.093 227.955 111.493 224.185 118.124 223.652C127.242 222.921 135.238 228.585 135.98 236.301C136.726 244.016 129.935 250.866 120.818 251.597Z" fill="#EB5569"/>
<ellipse cx="31.6666" cy="244.821" rx="44" ry="35.3571" fill="#F58A97"/>
<path fill-rule="evenodd" clip-rule="evenodd" d="M39.6666 279.596C19.1857 276.573 3.66663 262.153 3.66663 244.821C3.66663 227.49 19.1857 213.07 39.6666 210.047C37.0724 209.664 34.3986 209.464 31.6666 209.464C7.36609 209.464 -12.3334 225.294 -12.3334 244.821C-12.3334 264.349 7.36609 280.179 31.6666 280.179C34.3986 280.179 37.0724 279.979 39.6666 279.596Z" fill="#F07281"/>
<ellipse cx="23.6666" cy="235.179" rx="10" ry="8.03571" fill="#EB5569"/>
<ellipse cx="33.6666" cy="259.286" rx="8" ry="6.42857" fill="#EB5569"/>
<ellipse cx="57.6666" cy="238.393" rx="6" ry="4.82143" fill="#EB5569"/>
</g>
</g>
<g opacity="0.8" filter="url(#filter0_f)">
<g clip-path="url(#clip2)">
<path d="M521.434 87.0171C516.78 87.3899 512.571 85.2628 510.626 81.9407L505.109 82.3293L500.945 83.9353C499.992 84.3014 499.351 85.0292 499.205 85.8648C498.812 88.1177 498.098 90.2875 497.106 92.3495C496.769 93.0481 496.828 93.8275 497.286 94.4789L498.77 96.5993L499.932 96.4308C502.107 95.7659 504.639 95.9254 506.722 97.0418C510.251 98.9353 511.097 102.832 508.472 105.575C506.213 107.938 502.012 108.587 498.814 107.069C496.776 106.103 495.545 104.499 495.245 102.785L493.635 102.716L490.758 102.435C489.768 102.338 488.785 102.61 488.065 103.16C485.637 105.009 482.895 106.597 479.913 107.868C478.91 108.295 478.266 109.115 478.196 110.02L477.83 114.679L479.64 120.418C482.72 121.105 485.266 123.057 486.104 125.712C487.368 129.726 484.249 133.798 479.163 134.703C474.573 135.521 469.866 133.383 468.408 129.809C467.272 127.019 468.315 124.135 470.715 122.251L468.897 116.478L466.089 112.871C465.336 111.903 464.004 111.33 462.577 111.332C462.568 111.332 462.562 111.332 462.554 111.332C460.095 111.332 457.69 111.137 455.363 110.77C453.977 110.55 452.547 110.901 451.574 111.721L447.865 114.85L443.711 121.736C444.684 123.315 444.771 125.222 443.742 126.932C441.893 129.996 437.178 131.213 433.409 129.519C430.183 128.066 428.786 124.858 430.191 122.118C431.15 120.249 433.137 119 435.385 118.583L439.564 111.651L440.384 106.999C440.533 106.141 440.123 105.276 439.28 104.733C435.955 102.576 433.106 99.9731 430.877 97.035C430.323 96.305 429.329 95.8625 428.261 95.8558L422.449 95.8109L422.013 95.0292C421.566 98.1918 418.857 101.002 414.816 102.017C409.386 103.383 403.603 100.997 401.841 96.6846C400.079 92.3742 403.055 87.6595 408.442 86.2354C412.213 85.2381 416.176 86.0669 418.857 88.1042L425.61 86.4061L424.616 85.9771C425.349 85.5615 425.74 84.8652 425.667 84.1509C425.585 83.358 425.543 82.5584 425.543 81.7498C425.543 77.3563 426.752 73.1851 428.91 69.434C429.225 68.8837 429.216 68.2502 428.885 67.7067L427.423 65.319L423.458 62.9268C421.238 63.4951 418.723 63.2233 416.722 62.0171C413.327 59.9686 412.754 56.04 415.564 53.4187C417.984 51.1613 422.224 50.6986 425.313 52.3562C427.28 53.412 428.398 55.0651 428.578 56.7902L432.974 59.4407L437.402 60.0719C440.626 57.6797 444.383 55.7412 448.511 54.3823L449.551 49.3329L448.239 44.1173C444.355 43.3176 441.202 40.9389 440.353 37.7673C439.156 33.2862 443.009 28.9218 448.961 28.0211C454.91 27.1204 460.705 30.0202 461.902 34.5014C462.799 37.8549 460.868 41.1411 457.344 42.9605L458.583 47.8796L461.627 51.761C461.826 52.0148 462.175 52.1676 462.548 52.1676C469.523 52.1676 476.049 53.7174 481.621 56.4084C481.928 56.5544 482.304 56.5746 482.628 56.4533L487.394 54.6878L492.958 49.8765C492.624 48.1514 493.239 46.323 494.838 44.9416C497.727 42.4461 502.673 42.3832 505.657 44.8787C508.274 47.0687 508.375 50.5615 505.891 52.8482C504.283 54.3284 501.976 55.0112 499.722 54.8765L494.158 59.6878L492.351 63.5737C492.224 63.8432 492.281 64.1442 492.491 64.3778C494.686 66.7857 496.437 69.4677 497.645 72.3473C497.98 73.1379 498.767 73.7534 499.773 73.9802L504.297 74.9933L510.176 74.5777C511.618 71.2556 515.218 68.7421 519.638 68.3872C525.717 67.8998 531.048 71.6757 531.542 76.8194C532.04 81.9632 527.513 86.5296 521.434 87.0171Z" fill="#EB5569"/>
<ellipse cx="462" cy="82.5" rx="29.3333" ry="23.5714" fill="#F58A97"/>
<path fill-rule="evenodd" clip-rule="evenodd" d="M467.333 105.683C453.679 103.667 443.333 94.0545 443.333 82.5C443.333 70.9454 453.679 61.3326 467.333 59.3172C465.604 59.0619 463.821 58.9285 462 58.9285C445.8 58.9285 432.667 69.4818 432.667 82.5C432.667 95.5181 445.8 106.071 462 106.071C463.821 106.071 465.604 105.938 467.333 105.683Z" fill="#F07281"/>
<ellipse cx="456.667" cy="76.0714" rx="6.66667" ry="5.35714" fill="#EB5569"/>
<ellipse cx="463.333" cy="92.1428" rx="5.33333" ry="4.28572" fill="#EB5569"/>
<ellipse cx="479.333" cy="78.2143" rx="4" ry="3.21428" fill="#EB5569"/>
</g>
</g>
<g opacity="0.8" filter="url(#filter1_f)">
<g clip-path="url(#clip3)">
<path d="M492.05 261.009C489.723 261.195 487.619 260.131 486.646 258.47L483.888 258.665L481.806 259.468C481.329 259.651 481.009 260.015 480.936 260.432C480.739 261.559 480.382 262.644 479.886 263.675C479.718 264.024 479.747 264.414 479.976 264.739L480.718 265.8L481.299 265.715C482.387 265.383 483.653 265.463 484.694 266.021C486.459 266.968 486.882 268.916 485.569 270.288C484.44 271.469 482.339 271.794 480.74 271.034C479.721 270.551 479.106 269.75 478.956 268.893L478.151 268.858L476.712 268.717C476.217 268.669 475.726 268.805 475.366 269.08C474.152 270.005 472.781 270.799 471.29 271.434C470.788 271.648 470.466 272.058 470.431 272.51L470.249 274.839L471.153 277.709C472.693 278.053 473.966 279.029 474.385 280.356C475.018 282.363 473.458 284.399 470.915 284.852C468.62 285.261 466.266 284.191 465.537 282.405C464.97 281.01 465.491 279.568 466.691 278.625L465.782 275.739L464.378 273.935C464.001 273.451 463.335 273.165 462.622 273.166C462.617 273.166 462.615 273.166 462.61 273.166C461.381 273.166 460.178 273.068 459.015 272.885C458.322 272.775 457.607 272.95 457.121 273.36L455.266 274.925L453.189 278.368C453.675 279.158 453.719 280.111 453.204 280.966C452.28 282.498 449.922 283.107 448.038 282.26C446.425 281.533 445.726 279.929 446.429 278.559C446.908 277.625 447.902 277 449.026 276.791L451.115 273.326L451.525 271C451.6 270.571 451.395 270.138 450.973 269.866C449.311 268.788 447.886 267.487 446.772 266.018C446.495 265.653 445.998 265.431 445.464 265.428L442.558 265.405L442.34 265.015C442.116 266.596 440.762 268.001 438.741 268.509C436.027 269.191 433.135 267.999 432.254 265.842C431.373 263.687 432.861 261.33 435.554 260.618C437.44 260.119 439.421 260.534 440.762 261.552L444.138 260.703L443.641 260.489C444.008 260.281 444.203 259.933 444.167 259.576C444.126 259.179 444.105 258.779 444.105 258.375C444.105 256.178 444.709 254.093 445.788 252.217C445.946 251.942 445.941 251.625 445.776 251.353L445.045 250.16L443.062 248.963C441.952 249.248 440.695 249.112 439.694 248.509C437.997 247.484 437.71 245.52 439.115 244.209C440.325 243.081 442.446 242.849 443.99 243.678C444.973 244.206 445.533 245.033 445.622 245.895L447.82 247.22L450.035 247.536C451.646 246.34 453.525 245.371 455.589 244.691L456.109 242.166L455.453 239.559C453.511 239.159 451.934 237.969 451.51 236.384C450.911 234.143 452.838 231.961 455.814 231.511C458.788 231.06 461.686 232.51 462.284 234.751C462.733 236.427 461.767 238.071 460.005 238.98L460.625 241.44L462.147 243.381C462.246 243.507 462.421 243.584 462.608 243.584C466.095 243.584 469.358 244.359 472.144 245.704C472.297 245.777 472.486 245.787 472.647 245.727L475.03 244.844L477.812 242.438C477.645 241.576 477.953 240.662 478.752 239.971C480.197 238.723 482.67 238.692 484.162 239.939C485.47 241.034 485.521 242.781 484.279 243.924C483.475 244.664 482.321 245.006 481.194 244.938L478.412 247.344L477.509 249.287C477.446 249.422 477.474 249.572 477.579 249.689C478.676 250.893 479.552 252.234 480.156 253.674C480.323 254.069 480.717 254.377 481.22 254.49L483.482 254.997L486.421 254.789C487.142 253.128 488.942 251.871 491.152 251.694C494.192 251.45 496.857 253.338 497.105 255.91C497.353 258.482 495.09 260.765 492.05 261.009Z" fill="#EB5569"/>
<ellipse cx="462.333" cy="258.75" rx="14.6667" ry="11.7857" fill="#F58A97"/>
<path fill-rule="evenodd" clip-rule="evenodd" d="M465 270.341C458.173 269.334 453 264.527 453 258.75C453 252.973 458.173 248.166 465 247.159C464.135 247.031 463.244 246.964 462.333 246.964C454.233 246.964 447.667 252.241 447.667 258.75C447.667 265.259 454.233 270.536 462.333 270.536C463.244 270.536 464.135 270.469 465 270.341Z" fill="#F07281"/>
<ellipse cx="459.667" cy="255.536" rx="3.33333" ry="2.67857" fill="#EB5569"/>
<ellipse cx="463" cy="263.571" rx="2.66667" ry="2.14286" fill="#EB5569"/>
<ellipse cx="471" cy="256.607" rx="2" ry="1.60714" fill="#EB5569"/>
</g>
</g>
</g>
<defs>
<filter id="filter0_f" x="399.333" y="25.8571" width="137.333" height="111.143" filterUnits="userSpaceOnUse" color-interpolation-filters="sRGB">
<feFlood flood-opacity="0" result="BackgroundImageFix"/>
<feBlend mode="normal" in="SourceGraphic" in2="BackgroundImageFix" result="shape"/>
<feGaussianBlur stdDeviation="1" result="effect1_foregroundBlur"/>
</filter>
<filter id="filter1_f" x="428" y="227.429" width="74.6667" height="61.5714" filterUnits="userSpaceOnUse" color-interpolation-filters="sRGB">
<feFlood flood-opacity="0" result="BackgroundImageFix"/>
<feBlend mode="normal" in="SourceGraphic" in2="BackgroundImageFix" result="shape"/>
<feGaussianBlur stdDeviation="2" result="effect1_foregroundBlur"/>
</filter>
<clipPath id="clip0">
<rect width="500" height="300" fill="white"/>
</clipPath>
<clipPath id="clip1">
<rect x="-59.3334" y="162.857" width="200" height="160.714" fill="white"/>
</clipPath>
<clipPath id="clip2">
<rect x="401.333" y="27.8571" width="133.333" height="107.143" fill="white"/>
</clipPath>
<clipPath id="clip3">
<rect x="432" y="231.429" width="66.6667" height="53.5714" fill="white"/>
</clipPath>
</defs>
</svg>
